<?xml version="1.0" encoding="UTF-8" standalone="no"?>
<svg width="18px" height="34px" viewBox="0 0 18 34" version="1.1" xmlns="http://www.w3.org/2000/svg" xmlns:xlink="http://www.w3.org/1999/xlink" xmlns:sketch="http://www.bohemiancoding.com/sketch/ns">
    <!-- Generator: Sketch 3.4 (15588) - http://www.bohemiancoding.com/sketch -->
    <title>   </title>
    <desc>Created with Sketch.</desc>
    <defs></defs>
    <g id="Welcome" stroke="none" stroke-width="1" fill="none" fill-rule="evenodd" sketch:type="MSPage">
        <g id="Desktop-HD-Copy-2" sketch:type="MSArtboardGroup" transform="translate(-1254.000000, -49.000000)" fill="#FFFFFF">
            <path d="M1271.55357,49.3839286 L1271.55357,54.6875 L1268.39955,54.6875 C1267.24776,54.6875 1266.47098,54.928569 1266.0692,55.4107143 C1265.66741,55.8928596 1265.46652,56.6160666 1265.46652,57.5803571 L1265.46652,61.3772321 L1271.35268,61.3772321 L1270.5692,67.3236607 L1265.46652,67.3236607 L1265.46652,82.5714286 L1259.3192,82.5714286 L1259.3192,67.3236607 L1254.19643,67.3236607 L1254.19643,61.3772321 L1259.3192,61.3772321 L1259.3192,56.9977679 C1259.3192,54.506684 1260.01562,52.5747836 1261.40848,51.2020089 C1262.80135,49.8292342 1264.65624,49.1428571 1266.97321,49.1428571 C1268.94197,49.1428571 1270.46874,49.2232135 1271.55357,49.3839286 L1271.55357,49.3839286 Z" id="---" sketch:type="MSShapeGroup"></path>
        </g>
    </g>
</svg>