<?xml version="1.0" encoding="UTF-8" standalone="no"?>
<svg width="32px" height="26px" viewBox="0 0 32 26" version="1.1" xmlns="http://www.w3.org/2000/svg" xmlns:xlink="http://www.w3.org/1999/xlink" xmlns:sketch="http://www.bohemiancoding.com/sketch/ns">
    <!-- Generator: Sketch 3.4 (15588) - http://www.bohemiancoding.com/sketch -->
    <title></title>
    <desc>Created with Sketch.</desc>
    <defs></defs>
    <g id="Welcome" stroke="none" stroke-width="1" fill="none" fill-rule="evenodd" sketch:type="MSPage">
        <g id="Desktop-HD-Copy-2" sketch:type="MSArtboardGroup" transform="translate(-1366.000000, -54.000000)" fill="#FFFFFF">
            <path d="M1397.97545,57.3392857 C1397.07812,58.6517923 1395.99331,59.7700847 1394.72098,60.6941964 C1394.73438,60.8816974 1394.74107,61.1629446 1394.74107,61.5379464 C1394.74107,63.2790266 1394.48661,65.0167324 1393.97768,66.7511161 C1393.46875,68.4854997 1392.69532,70.1495456 1391.65737,71.7433036 C1390.61941,73.3370615 1389.38394,74.7466457 1387.95089,75.9720982 C1386.51785,77.1975508 1384.79019,78.1752196 1382.76786,78.9051339 C1380.74553,79.6350483 1378.5826,80 1376.27902,80 C1372.64954,80 1369.32814,79.0290276 1366.31473,77.0870536 C1366.78348,77.1406253 1367.3058,77.1674107 1367.8817,77.1674107 C1370.8951,77.1674107 1373.58035,76.2433128 1375.9375,74.3950893 C1374.53124,74.3683034 1373.27233,73.9363881 1372.16071,73.0993304 C1371.0491,72.2622726 1370.28572,71.1942029 1369.87054,69.8950893 C1370.3125,69.9620539 1370.72098,69.9955357 1371.09598,69.9955357 C1371.67188,69.9955357 1372.24107,69.9218757 1372.80357,69.7745536 C1371.30356,69.4665163 1370.06139,68.719872 1369.07701,67.5345982 C1368.09263,66.3493244 1367.60045,64.9732221 1367.60045,63.40625 L1367.60045,63.3258929 C1368.51117,63.834824 1369.48883,64.1093748 1370.53348,64.1495536 C1369.64955,63.5602649 1368.94643,62.7901833 1368.42411,61.8392857 C1367.90178,60.8883881 1367.64062,59.8571484 1367.64062,58.7455357 C1367.64062,57.5669584 1367.93526,56.4754515 1368.52455,55.4709821 C1370.1451,57.4665278 1372.11718,59.0636101 1374.44085,60.2622768 C1376.76452,61.4609435 1379.25222,62.1272315 1381.90402,62.2611607 C1381.79687,61.7522296 1381.7433,61.2566988 1381.7433,60.7745536 C1381.7433,58.9799017 1382.37611,57.4497831 1383.64174,56.1841518 C1384.90737,54.9185205 1386.43749,54.2857143 1388.23214,54.2857143 C1390.10715,54.2857143 1391.68749,54.9687432 1392.97321,56.3348214 C1394.43304,56.05357 1395.8058,55.5312538 1397.09152,54.7678571 C1396.59598,56.3080434 1395.6451,57.4999958 1394.23884,58.34375 C1395.48438,58.2098208 1396.7299,57.8750027 1397.97545,57.3392857 L1397.97545,57.3392857 Z" id="" sketch:type="MSShapeGroup"></path>
        </g>
    </g>
</svg>