<?xml version="1.0" encoding="UTF-8" standalone="no"?>
<svg width="256px" height="366px" viewBox="0 0 256 366" version="1.1" xmlns="http://www.w3.org/2000/svg" xmlns:xlink="http://www.w3.org/1999/xlink" xmlns:sketch="http://www.bohemiancoding.com/sketch/ns">
    <!-- Generator: Sketch 3.4 (15588) - http://www.bohemiancoding.com/sketch -->
    <title>logo</title>
    <desc>Created with Sketch.</desc>
    <defs>
        <path id="path-1" d="M0,0 L256,0 L256,365.939 L0,365.939"></path>
    </defs>
    <g id="Welcome" stroke="none" stroke-width="1" fill="none" fill-rule="evenodd" sketch:type="MSPage">
        <g id="Desktop-HD-Copy-2" sketch:type="MSArtboardGroup" transform="translate(-245.000000, -263.000000)">
            <g id="logo" sketch:type="MSLayerGroup" transform="translate(245.000000, 263.000000)">
                <g id="Group-3">
                    <mask id="mask-2" sketch:name="Clip 2" fill="white">
                        <use xlink:href="#path-1"></use>
                    </mask>
                    <g id="Clip-2"></g>
                    <path d="M256,363.96565 C256,365.085 255.085714,366 253.967238,366 L2.0327619,366 C0.914285714,366 0,365.085 0,363.96565 L0,195.957417 C0,194.839083 0.914285714,193.923067 2.0327619,193.923067 L253.967238,193.923067 C255.085714,193.923067 256,194.839083 256,195.957417 L256,363.96565" id="Fill-1" fill="#FFFFFF" sketch:type="MSShapeGroup" mask="url(#mask-2)"></path>
                </g>
                <path d="M0,2.40035 C0,1.08071667 1.07987302,0 2.39847619,0 L37.4755556,0 C38.7951746,0 40.0568889,1.06445 40.2813968,2.36578333 L52.5582222,73.8222 C52.7817143,75.1235333 53.1779048,75.1296333 53.44,73.8354167 L67.8806349,2.35358333 C68.1417143,1.05936667 69.4359365,0 70.7545397,0 L104.156444,0 C105.475048,0 106.554921,1.08071667 106.554921,2.40035 L106.554921,169.33905 C106.554921,170.6597 105.475048,171.7394 104.156444,171.7394 L85.1636825,171.7394 C83.8440635,171.7394 82.7641905,170.6597 82.7641905,169.33905 L82.7641905,136.23435 C82.7641905,134.9137 82.5660952,134.8954 82.3233016,136.192667 L76.1183492,169.379717 C75.8755556,170.678 74.5975873,171.7394 73.2789841,171.7394 L55.3630476,171.7394 L50.5650794,171.7394 L34.952127,171.7394 C33.6325079,171.7394 32.3545397,170.678 32.111746,169.379717 L25.9067937,136.192667 C25.6650159,134.8954 25.4659048,134.9137 25.4659048,136.23435 L25.4659048,169.33905 C25.4659048,170.6597 24.3860317,171.7394 23.0674286,171.7394 L2.39847619,171.7394 C1.07987302,171.7394 0,170.6597 0,169.33905 L0,2.40035" id="Fill-4" fill="#FFFFFF" sketch:type="MSShapeGroup"></path>
                <path d="M114.708317,2.40035 C114.708317,1.08071667 115.78819,0 117.10781,0 L171.730286,0 C173.049905,0 174.128762,1.08071667 174.128762,2.40035 L174.128762,19.8128 C174.128762,21.13345 173.049905,22.21315 171.730286,22.21315 L145.700571,22.21315 C144.380952,22.21315 143.302095,23.2938667 143.302095,24.6145167 L143.302095,67.1132167 C143.302095,68.43285 144.380952,69.5135667 145.700571,69.5135667 L166.592,69.5135667 C167.911619,69.5135667 168.991492,70.5942833 168.991492,71.9139167 L168.991492,85.9002 C168.991492,87.22085 167.911619,88.3015667 166.592,88.3015667 L145.700571,88.3015667 C144.380952,88.3015667 143.302095,89.3812667 143.302095,90.7019167 L143.302095,147.1259 C143.302095,148.445533 144.380952,149.52625 145.700571,149.52625 L171.730286,149.52625 C173.049905,149.52625 174.128762,150.606967 174.128762,151.9266 L174.128762,169.33905 C174.128762,170.6597 173.049905,171.7394 171.730286,171.7394 L117.10781,171.7394 C115.78819,171.7394 114.708317,170.6597 114.708317,169.33905 L114.708317,2.40035" id="Fill-5" fill="#FFFFFF" sketch:type="MSShapeGroup"></path>
                <path d="M181.27746,2.40035 C181.27746,1.08071667 182.357333,0 183.675937,0 L209.370413,0 C210.690032,0 211.769905,1.08071667 211.769905,2.40035 L211.769905,137.842717 C211.769905,139.16235 212.848762,140.243067 214.168381,140.243067 L253.601524,140.243067 C254.920127,140.243067 256,141.323783 256,142.643417 L256,169.33905 C256,170.6597 254.920127,171.7394 253.601524,171.7394 L183.675937,171.7394 C182.357333,171.7394 181.27746,170.6597 181.27746,169.33905 L181.27746,2.40035" id="Fill-6" fill="#FFFFFF" sketch:type="MSShapeGroup"></path>
            </g>
        </g>
    </g>
</svg>